<svg id="Group_946" data-name="Group 946" xmlns="http://www.w3.org/2000/svg" width="642.563" height="642.564" viewBox="0 0 642.563 642.564">
  <g id="Group_913" data-name="Group 913">
    <path id="Path_790" data-name="Path 790" d="M649.985,309.433c-119.157,0-216.275,95.927-218.335,214.6l-.1-.008V847.988H486.4V527.868c0-90.2,73.383-163.576,163.584-163.576s163.576,73.374,163.576,163.576S740.178,691.452,649.985,691.452V746.3c120.44,0,218.427-98,218.427-218.435S770.425,309.433,649.985,309.433Z" transform="translate(-328.699 -207.566)" fill="#ff8b04"/>
    <g id="Group_912" data-name="Group 912">
      <path id="Path_791" data-name="Path 791" d="M740.4,939.684c-4.3,0-8.571-.157-12.831-.323l2.15-54.809c3.55.141,7.1.281,10.681.281,146.906,0,266.428-119.521,266.428-266.435S887.31,351.971,740.4,351.971,473.977,471.492,473.977,618.4a267.672,267.672,0,0,0,7.777,63.968l-53.263,13.121a322.883,322.883,0,0,1-9.373-77.089c0-177.152,144.125-321.278,321.286-321.278S1061.682,441.246,1061.682,618.4,917.556,939.684,740.4,939.684Z" transform="translate(-419.118 -297.12)" fill="#ff8b04"/>
    </g>
  </g>
</svg>
